HIERARCHY
ROOT Hips
{
	OFFSET 0.000000 0.000000 0.000000
	CHANNELS 6 Xposition Yposition Zposition Zrotation Yrotation Xrotation 
	JOINT LHipJoint
	{
		OFFSET 0.000000 0.000000 0.000000
		CHANNELS 3 Zrotation Yrotation Xrotation
		JOINT LeftUpLeg
		{
			OFFSET 1.363060 -1.794630 0.839290
			CHANNELS 3 Zrotation Yrotation Xrotation
			JOINT LeftLeg
			{
				OFFSET 2.448110 -6.726130 0.000000
				CHANNELS 3 Zrotation Yrotation Xrotation
				JOINT LeftFoot
				{
					OFFSET 2.562200 -7.039590 0.000000
					CHANNELS 3 Zrotation Yrotation Xrotation
					JOINT LeftToeBase
					{
						OFFSET 0.157640 -0.433110 2.322550
						CHANNELS 3 Zrotation Yrotation Xrotation
						End Site
						{
							OFFSET 0.000000 0.000000 0.000000
						}
					}
				}
			}
		}
	}
	JOINT RHipJoint
	{
		OFFSET 0.000000 0.000000 0.000000
		CHANNELS 3 Zrotation Yrotation Xrotation
		JOINT RightUpLeg
		{
			OFFSET -1.305520 -1.794630 0.839290
			CHANNELS 3 Zrotation Yrotation Xrotation
			JOINT RightLeg
			{
				OFFSET -2.542530 -6.985550 0.000000
				CHANNELS 3 Zrotation Yrotation Xrotation
				JOINT RightFoot
				{
					OFFSET -2.568260 -7.056230 0.000000
					CHANNELS 3 Zrotation Yrotation Xrotation
					JOINT RightToeBase
					{
						OFFSET -0.164730 -0.452590 2.363150
						CHANNELS 3 Zrotation Yrotation Xrotation
						End Site
						{
							OFFSET 0.000000 0.000000 0.000000
						}
					}
				}
			}
		}
	}
}
MOTION
Frames: 25
Frame Time: 0.008333
-1.677348 17.675064 -1.155892 29.416181 84.724575 46.361059 -11.089501 3.574373 -1.419534 -6.494739 11.209069 -6.713323 -0.907408 1.360683 21.985937 0.879234 3.171120 19.386835 1.091700 0.000000 -66.925400 8.335424 -0.651242 2.791271 14.639806 4.331564 -31.616695 3.493001 1.150846 3.990652 -0.265802 -0.972714 -1.019838 -0.710800 0.000000 -60.620200
-1.438370 17.684102 -1.099913 29.958400 84.292329 46.635841 -11.055813 3.676335 -1.409056 -6.487828 11.295057 -6.410058 -0.816482 1.434251 23.086903 0.940346 3.175896 20.434469 1.097300 -0.000001 -64.471500 8.422371 -0.705140 2.616465 15.482487 3.225561 -31.209746 3.613536 1.247693 2.711784 -0.105642 -0.498328 0.229561 -0.693700 -0.000000 -62.037000
-1.201778 17.681374 -1.042825 30.506671 83.836893 46.918750 -11.007033 3.759625 -1.390164 -6.544723 11.245330 -6.231148 -0.723059 1.512114 24.512931 1.006429 3.388704 21.021168 1.183000 -0.000000 -61.868800 8.511747 -0.770367 2.423482 16.295803 2.154556 -30.876496 3.703589 1.284953 1.891882 0.017932 -0.151826 1.390364 -0.675800 0.000000 -62.559000
-0.967676 17.666300 -0.984842 30.996226 83.359639 47.155884 -10.947952 3.823650 -1.376512 -6.652715 11.109879 -6.183617 -0.628980 1.596597 26.247819 1.074755 3.789218 21.170103 1.342800 0.000000 -59.184200 8.597983 -0.843169 2.240321 17.022010 1.236422 -30.587624 3.753157 1.273406 1.470327 0.091437 -0.011241 2.424363 -0.681901 -0.000000 -62.063500
-0.736146 17.638501 -0.926339 31.401632 82.863696 47.330212 -10.881999 3.869126 -1.377409 -6.800760 10.929398 -6.264502 -0.534394 1.688729 28.252297 1.146276 4.365559 20.944965 1.568400 0.000001 -56.602100 8.677626 -0.917331 2.087720 17.615824 0.558208 -30.330271 3.756595 1.221526 1.424748 0.107602 -0.111781 3.247907 -0.728900 -0.000001 -60.360599
-0.507082 17.597813 -0.867814 31.661622 82.356072 47.390939 -10.816173 3.896130 -1.401588 -6.963412 10.753401 -6.479282 -0.439493 1.789105 30.492631 1.221778 5.088256 20.400980 1.839000 0.000000 -54.167701 8.743171 -0.986675 1.986918 18.050520 0.208492 -30.096364 3.711392 1.139681 1.736497 0.059842 -0.480511 3.759108 -0.829999 0.000000 -57.242400
-0.280309 17.544468 -0.809928 31.715668 81.846235 47.287414 -10.757945 3.904569 -1.452853 -7.112481 10.617322 -6.828511 -0.342657 1.896778 32.921008 1.304537 5.940327 19.621804 2.139300 0.000001 -52.095400 8.785267 -1.045457 1.952489 18.322676 0.250304 -29.893149 3.619993 1.036359 2.411983 -0.055128 -1.110675 3.834026 -0.981700 0.000000 -52.484799
-0.055618 17.478944 -0.753323 31.491835 81.345701 46.955611 -10.716602 3.894251 -1.533491 -7.209571 10.559605 -7.321287 -0.243911 2.011164 35.510145 1.394134 6.882394 18.638229 2.441900 0.000000 -50.130300 8.791694 -1.090112 1.993765 18.455168 0.721411 -29.743762 3.489819 0.917947 3.475958 -0.238787 -1.966603 3.344058 -1.158400 0.000000 -45.892500
0.167258 17.402075 -0.698516 30.950381 80.864521 46.358853 -10.698738 3.864753 -1.638410 -7.226638 10.586011 -7.948902 -0.140488 2.129606 38.204194 1.495134 7.913512 17.549710 2.743300 -0.000001 -48.744700 8.752816 -1.117652 2.106958 18.488815 1.609107 -29.684981 3.332678 0.786064 4.972509 -0.488790 -2.971071 2.175062 -1.306399 -0.000000 -37.374700
0.388522 17.314750 -0.645859 30.079013 80.409242 45.482804 -10.709303 3.817468 -1.762148 -7.139307 10.707054 -8.712371 -0.034071 2.251890 40.986024 1.604202 8.993465 16.345461 3.017600 0.000000 -47.397900 8.663989 -1.128210 2.279713 18.476126 2.853159 -29.768509 3.162661 0.636086 6.956232 -0.799070 -4.025528 0.276590 -1.356400 0.000000 -27.191500
0.608371 17.218130 -0.595443 28.913810 79.978165 44.357125 -10.748352 3.754155 -1.893673 -6.946458 10.899447 -9.593995 0.075804 2.376572 43.811633 1.722995 10.120380 15.085396 3.263900 -0.000000 -46.348200 8.531450 -1.122899 2.490618 18.459371 4.355678 -30.036533 2.990167 0.458194 9.455215 -1.159268 -5.045499 -2.274227 -1.252700 0.000000 -16.175700
0.826800 17.113448 -0.547042 27.519828 79.562206 43.040009 -10.813030 3.678105 -2.022498 -6.662663 11.136345 -10.582235 0.187246 2.504130 46.656706 1.849136 11.273644 13.771475 3.470200 0.000000 -45.371900 8.371841 -1.105728 2.717971 18.463077 6.007170 -30.516187 2.818174 0.238826 12.465974 -1.552736 -5.984955 -5.258151 -0.980700 0.000001 -5.835600
1.043766 17.002199 -0.500226 25.967660 79.149450 41.595483 -10.898267 3.592568 -2.138348 -6.311656 11.381747 -11.663540 0.299104 2.635114 49.496130 1.980464 12.434747 12.411656 3.627700 0.000000 -44.391500 8.206052 -1.080197 2.942447 18.499055 7.703723 -31.205857 2.646336 -0.029864 15.948172 -1.957106 -6.817027 -8.449144 179.442100 0.000000 -2.642000
1.259114 16.886434 -0.454553 24.327152 78.731128 40.085129 -10.998610 3.500787 -2.232546 -5.917990 11.597202 -12.823107 0.410540 2.770424 52.308123 2.113841 13.579459 10.998435 3.724200 0.000000 -43.231900 8.052850 -1.047657 3.145627 18.577929 9.339897 -32.066613 2.477870 -0.342272 19.810058 -2.348424 -7.511454 -11.713225 179.987400 0.000000 -9.129300
1.472570 16.768253 -0.409486 22.651946 78.298122 38.555386 -11.107278 3.404919 -2.298753 -5.508242 11.744193 -14.043939 0.521955 2.909750 55.066794 2.246696 14.686158 9.538480 3.752599 -0.000000 -41.904401 7.927576 -1.009466 3.316009 18.705062 10.831635 -33.030729 2.317196 -0.681990 23.898269 -2.706250 -8.053272 -14.945614 -179.385900 0.000000 -13.895900
1.683890 16.650404 -0.364624 20.971942 77.843796 37.032139 -11.219692 3.306282 -2.333897 -5.101551 11.790490 -15.312231 0.633470 3.052776 57.747912 2.376020 15.730831 8.027644 3.704400 -0.000000 -40.321400 7.836611 -0.968500 3.448239 18.887026 12.122692 -34.008527 2.169990 -1.026012 28.013617 -3.017354 -8.446325 -18.050306 -178.726300 -0.000000 -17.328800
1.892890 16.535652 -0.319706 19.288384 77.362194 35.517718 -11.332835 3.204815 -2.336231 -4.709618 11.711893 -16.621183 0.745351 3.198137 60.325972 2.499600 16.694556 6.474531 3.577200 0.000000 -38.542900 7.777474 -0.929574 3.544034 19.130782 13.191740 -34.914304 2.041549 -1.352655 31.958077 -3.276160 -8.705506 -20.938832 -178.081100 0.000000 -19.687600
2.099445 16.426841 -0.274420 17.597035 76.846322 34.009356 -11.443836 3.100319 -2.305964 -4.339301 11.494513 -17.963098 0.857095 3.343985 62.775086 2.615104 17.560019 4.880679 3.370100 -0.000000 -36.542099 7.742620 -0.897570 3.606878 19.440352 14.039054 -35.674437 1.936708 -1.645783 35.567420 -3.482344 -8.841726 -23.550126 -177.488300 0.000000 -21.213800
2.303552 16.326474 -0.228395 15.903059 76.289387 32.513854 -11.549473 2.992308 -2.243328 -3.995931 11.131872 -19.332067 0.967784 3.487328 65.068221 2.721097 18.317454 3.258315 3.088400 -0.000001 -34.388300 7.723400 -0.876437 3.641264 19.812010 14.678717 -36.238088 1.858817 -1.896104 38.726879 -3.637969 -8.859342 -25.845707 -176.976400 0.000000 -22.063500
2.505300 16.236655 -0.181149 14.235524 75.685487 31.059006 -11.645444 2.880734 -2.149923 -3.685764 10.625516 -20.717951 1.075365 3.624607 67.179450 2.815993 18.958532 1.607707 2.736800 0.000000 -32.034900 7.713454 -0.868356 3.650595 20.231240 15.129409 -36.571617 1.810123 -2.099643 41.368065 -3.744983 -8.753500 -27.810780 -176.564900 0.000000 -22.380100
2.704951 16.158943 -0.132101 12.628224 75.031823 29.678320 -11.728200 2.764720 -2.025938 -3.411376 9.979596 -22.111920 1.178127 3.750890 69.079706 2.900269 19.488628 -0.023498 2.337900 0.000000 -29.832400 7.707280 -0.873921 3.639751 20.677783 15.418256 -36.660434 1.791762 -2.255356 43.458698 -3.806248 -8.520021 -29.448987 -176.264900 0.000000 -22.308800
2.902776 16.094415 -0.080520 11.139544 74.326133 28.422767 -11.793079 2.645083 -1.875434 -3.180224 9.208568 -23.496422 1.271798 3.862476 70.747549 2.971923 19.899536 -1.652903 1.893600 -0.000000 -27.561800 7.704073 -0.892053 3.610650 21.121166 15.565150 -36.496256 1.804090 -2.364593 44.997194 -3.822906 -8.149316 -30.779308 -176.081800 0.000000 -21.992800
3.099214 16.043677 -0.025750 9.809254 73.570780 27.328062 -11.837338 2.521650 -1.700780 -2.993476 8.327153 -24.859036 1.352679 3.955367 72.161529 3.030517 20.192329 -3.255675 1.421200 0.000000 -25.328100 7.702561 -0.920744 3.567747 21.533156 15.598276 -36.085179 1.846184 -2.429311 46.001806 -3.798146 -7.642136 -31.829815 -176.013100 -0.000000 -21.580000
3.294778 16.006878 0.032805 8.665849 72.770328 26.419376 -11.859048 2.394615 -1.504825 -2.850269 7.353802 -26.189041 1.416666 4.026620 73.306063 3.075232 20.365677 -4.818351 0.934501 0.000000 -23.145600 7.702526 -0.957279 3.516160 21.887760 15.546789 -35.441094 1.915696 -2.452035 46.506041 -3.736208 -7.007553 -32.632739 -176.049900 0.000000 -21.201700
3.489945 15.983905 0.095639 7.720939 71.931298 25.707079 -11.857104 2.263932 -1.290023 -2.746994 6.307401 -27.479441 1.460306 4.073991 74.168829 3.105596 20.420420 -6.317042 0.451200 0.000000 -21.107200 7.704212 -0.998480 3.461595 22.164266 15.440762 -34.585857 2.008616 -2.435700 46.554210 -3.642828 -6.265858 -33.219449 -176.177800 0.000000 -20.952200
